<svg width="64" height="23" viewBox="0 0 64 23" fill="none" xmlns="http://www.w3.org/2000/svg">
<path d="M11.6779 10.516C13.4419 10.3 15.0619 9.508 15.6499 8.32C16.2499 9.508 17.8579 10.3 19.6219 10.516L19.9699 9.736C18.0859 9.52 16.3699 8.596 16.2859 7.408H19.6339V6.616H11.6779V7.408H15.0139C14.9299 8.596 13.2139 9.52 11.3299 9.736L11.6779 10.516ZM18.3259 14.98C18.3259 15.7 17.3179 16.12 15.6379 16.12C13.9459 16.12 12.9499 15.7 12.9499 14.98C12.9499 14.26 13.9459 13.852 15.6379 13.852C17.3179 13.852 18.3259 14.26 18.3259 14.98ZM20.5099 11.956V11.164H10.7779V11.956H15.1459V13.108C13.1419 13.204 11.9539 13.864 11.9539 14.98C11.9539 16.204 13.3459 16.876 15.6499 16.876C17.9419 16.876 19.3219 16.204 19.3219 14.98C19.3219 13.864 18.1459 13.204 16.1419 13.108V11.956H20.5099ZM22.4169 14.32H28.8849V16.888H29.8689V13.528H22.4169V14.32ZM23.5929 8.368H28.8249V9.616H23.5929V8.368ZM26.7009 11.68V10.396H29.7969V6.376H28.8249V7.6H23.5929V6.376H22.6209V10.396H25.7169V11.68H21.3249V12.484H31.0689V11.68H26.7009ZM38.292 7.108H35.7V6.052H34.716V7.108H32.112V7.852H38.292V7.108ZM33.624 9.844C33.624 9.28 34.236 8.932 35.208 8.932C36.156 8.932 36.78 9.28 36.78 9.844C36.78 10.408 36.156 10.768 35.208 10.768C34.236 10.768 33.624 10.408 33.624 9.844ZM38.616 11.908C37.68 12.052 36.684 12.124 35.7 12.172V11.428C36.936 11.296 37.716 10.72 37.716 9.844C37.716 8.86 36.708 8.248 35.208 8.248C33.684 8.248 32.688 8.86 32.688 9.844C32.688 10.732 33.468 11.308 34.716 11.428V12.208C33.684 12.244 32.7 12.244 31.848 12.244L31.956 13.036C33.84 13.024 36.384 13.024 38.688 12.616L38.616 11.908ZM33.156 14.668H39.252V16.888H40.236V13.888H33.156V14.668ZM41.82 9.388H40.236V6.136H39.252V13.348H40.236V10.204H41.82V9.388ZM51.2871 6.136H50.3031V13.996H51.2871V6.136ZM43.6671 9.52C43.6671 8.476 44.4591 7.732 45.5031 7.732C46.5711 7.732 47.3631 8.476 47.3631 9.52C47.3631 10.588 46.5711 11.332 45.5031 11.332C44.4591 11.332 43.6671 10.588 43.6671 9.52ZM48.3231 9.52C48.3231 7.972 47.1111 6.88 45.5031 6.88C43.9071 6.88 42.7071 7.972 42.7071 9.52C42.7071 11.08 43.9071 12.184 45.5031 12.184C47.1111 12.184 48.3231 11.08 48.3231 9.52ZM45.3471 15.844V13.192H44.3631V16.648H51.6111V15.844H45.3471Z" fill="#00D5A2"/>
<rect x="0.5" y="0.5" width="63" height="22" rx="11" stroke="#00D5A2"/>
</svg>
