<svg width="244" height="69" viewBox="0 0 244 69" fill="none" xmlns="http://www.w3.org/2000/svg">
<g filter="url(#filter0_d_2_430)">
<path d="M36.4683 8.17932L36.4773 16.0861L25.4047 16.0971L25.4408 48.7036L15.2607 48.7145L15.2268 16.108L4.15418 16.119L4.14514 8.21437L36.4683 8.17932Z" fill="white"/>
<path d="M55.0499 17.6524C56.8351 16.6315 58.8169 16.1188 60.9998 16.1166L61.0111 26.5626L58.2135 26.5648C55.6736 26.567 53.7686 27.0994 52.5009 28.1576C51.231 29.218 50.5982 31.0736 50.6028 33.7289L50.6186 48.6771L40.4408 48.6881L40.4046 16.4847L50.5824 16.4737L50.5892 21.8413C51.7801 20.0711 53.2647 18.6756 55.0499 17.6524Z" fill="white"/>
<path d="M95.3504 17.3501C97.0949 16.4255 99.1377 15.9611 101.481 15.9589C104.22 15.9567 106.699 16.6271 108.925 17.9701C111.148 19.3153 112.906 21.2366 114.199 23.7364C115.491 26.2362 116.14 29.1412 116.142 32.4494C116.147 35.7598 115.503 38.6737 114.217 41.1953C112.929 43.717 111.175 45.6625 108.954 47.0296C106.733 48.3989 104.254 49.0824 101.515 49.0868C99.2123 49.089 97.1785 48.6289 95.4114 47.7088C93.6443 46.7864 92.2636 45.5968 91.2693 44.1355L91.2919 63.989L81.1119 64L81.0576 16.4452L91.2377 16.4343L91.2422 20.9935C92.2365 19.4905 93.6036 18.2768 95.3504 17.3501ZM103.664 26.6634C102.254 25.2612 100.516 24.5602 98.453 24.5624C96.4283 24.5645 94.7132 25.2788 93.3053 26.7028C91.8975 28.1291 91.197 30.0724 91.1993 32.5349C91.2015 34.9974 91.9088 36.9407 93.3189 38.3626C94.729 39.7844 96.4464 40.4943 98.4711 40.4921C100.496 40.4899 102.22 39.7669 103.648 38.3231C105.076 36.8794 105.788 34.9251 105.784 32.4626C105.781 29.9979 105.074 28.0655 103.664 26.6634Z" fill="white"/>
<path d="M158.912 8.04993L158.921 15.9567L141.896 15.9743L141.905 24.5164L154.643 24.5033L154.652 32.18L141.914 32.1932L141.932 48.583L131.752 48.5939L131.707 8.0806L158.912 8.04993Z" fill="white"/>
<path d="M163.006 23.6861C164.292 21.1841 166.047 19.2584 168.269 17.9088C170.49 16.5592 172.969 15.8845 175.708 15.8801C178.049 15.8779 180.103 16.338 181.87 17.2581C183.637 18.1805 184.998 19.3898 185.951 20.8906L185.947 16.3314L196.124 16.3204L196.161 48.5238L185.983 48.5348L185.978 43.9756C184.988 45.4763 183.61 46.6901 181.845 47.6168C180.08 48.5413 178.026 49.0058 175.685 49.008C172.985 49.0102 170.524 48.331 168.3 46.9661C166.077 45.6034 164.316 43.6623 163.026 41.1428C161.734 38.6255 161.085 35.7117 161.081 32.4013C161.078 29.0931 161.72 26.188 163.006 23.6861ZM183.845 26.6065C182.435 25.1846 180.718 24.4748 178.693 24.477C176.668 24.4792 174.953 25.1824 173.545 26.589C172.137 27.9955 171.437 29.93 171.439 32.3903C171.441 34.8529 172.149 36.8049 173.559 38.2465C174.969 39.6881 176.686 40.4067 178.711 40.4045C180.736 40.4023 182.451 39.6881 183.859 38.264C185.264 36.84 185.967 34.8945 185.965 32.432C185.96 29.9716 185.253 28.0305 183.845 26.6065Z" fill="white"/>
<path d="M233.329 17.464C235.115 16.4431 237.096 15.9304 239.279 15.9282L239.29 26.3742L236.493 26.3764C233.953 26.3786 232.048 26.911 230.78 27.9692C229.51 29.0295 228.878 30.8852 228.882 33.5405L228.898 48.4887L218.718 48.4997L218.684 16.2985L228.864 16.2875L228.871 21.6551C230.059 19.8827 231.546 18.4871 233.329 17.464Z" fill="white"/>
<path d="M212.495 16.3041L202.315 16.3148L202.351 48.5182L212.531 48.5074L212.495 16.3041Z" fill="white"/>
<path d="M207.473 13.297H207.448C204.522 13.297 202.152 10.9966 202.152 8.16166V8.13756C202.152 5.3004 204.522 3 207.448 3H212.772V8.16166C212.772 10.9966 210.4 13.297 207.473 13.297Z" fill="white"/>
<path d="M74.8772 16.3041L64.6971 16.3148L64.7333 48.5182L74.9134 48.5074L74.8772 16.3041Z" fill="white"/>
<path d="M69.8558 13.297H69.831C66.9046 13.297 64.5342 10.9966 64.5342 8.16166V8.13756C64.5342 5.3004 66.9046 3 69.831 3H75.1549V8.16166C75.1549 10.9966 72.7822 13.297 69.8558 13.297Z" fill="white"/>
</g>
<defs>
<filter id="filter0_d_2_430" x="0.145142" y="0" width="243.145" height="68.9999" filterUnits="userSpaceOnUse" color-interpolation-filters="sRGB">
<feFlood flood-opacity="0" result="BackgroundImageFix"/>
<feColorMatrix in="SourceAlpha" type="matrix" values="0 0 0 0 0 0 0 0 0 0 0 0 0 0 0 0 0 0 127 0" result="hardAlpha"/>
<feOffset dy="1"/>
<feGaussianBlur stdDeviation="2"/>
<feComposite in2="hardAlpha" operator="out"/>
<feColorMatrix type="matrix" values="0 0 0 0 0.0830556 0 0 0 0 0.766667 0 0 0 0 0.601657 0 0 0 1 0"/>
<feBlend mode="normal" in2="BackgroundImageFix" result="effect1_dropShadow_2_430"/>
<feBlend mode="normal" in="SourceGraphic" in2="effect1_dropShadow_2_430" result="shape"/>
</filter>
</defs>
</svg>
